<?xml version="1.0" standalone="no"?>
<!DOCTYPE svg PUBLIC "-//W3C//DTD SVG 20010904//EN"
 "http://www.w3.org/TR/2001/REC-SVG-20010904/DTD/svg10.dtd">
<svg version="1.0" xmlns="http://www.w3.org/2000/svg"
 width="900.000000pt" height="904.000000pt" viewBox="0 0 900.000000 904.000000"
 preserveAspectRatio="xMidYMid meet">

<g transform="translate(0.000000,904.000000) scale(0.100000,-0.100000)"
fill="#ffffff" stroke="none">
<path d="M462 8800 c-109 -39 -202 -135 -237 -245 -14 -45 -15 -429 -13 -4055
l3 -4005 28 -58 c37 -74 110 -147 184 -184 l58 -28 4025 0 4025 0 58 28 c74
37 147 110 184 184 l28 58 0 4025 0 4025 -28 58 c-37 74 -110 147 -184 184
l-58 28 -4010 2 c-3919 2 -4011 2 -4063 -17z m8046 -194 c31 -16 74 -61 91
-93 16 -31 16 -7955 0 -7986 -17 -32 -60 -77 -91 -93 -23 -12 -599 -14 -3998
-14 -2916 0 -3977 3 -3993 11 -32 17 -77 60 -93 91 -21 41 -21 7955 0 7996 15
29 59 73 91 90 14 8 1115 11 3993 12 3401 0 3977 -2 4000 -14z"/>
<path d="M3166 8204 c-1175 -151 -2104 -1021 -2330 -2183 -40 -205 -31 -322
36 -459 40 -82 138 -187 219 -235 116 -69 346 -128 573 -147 133 -11 170 -10
460 17 233 21 433 15 501 -15 102 -46 169 -144 200 -289 12 -56 15 -205 15
-818 0 -817 -1 -802 57 -923 37 -76 167 -207 250 -250 126 -66 174 -72 579
-72 346 0 364 -1 373 -19 30 -55 39 -347 21 -684 -11 -208 -29 -313 -67 -400
-14 -31 -24 -60 -21 -62 19 -20 129 -46 171 -42 88 8 82 -30 79 550 l-3 512
93 -96 c51 -53 187 -197 303 -320 264 -282 458 -483 562 -583 l81 -77 52 26
51 26 -8 147 c-10 190 -10 379 1 793 6 249 6 344 -3 371 -19 57 -73 71 -167
43 -81 -25 -81 -25 -52 -92 33 -73 46 -137 58 -288 11 -130 11 -527 1 -639
l-6 -69 -260 274 c-301 317 -344 363 -562 601 -90 97 -180 187 -200 200 -38
23 -39 23 -453 28 l-415 5 -54 28 c-69 37 -141 109 -178 178 l-28 54 -5 800
c-6 785 -6 802 -28 880 -33 122 -101 250 -166 316 -153 155 -364 194 -801 149
-313 -32 -500 -21 -723 41 -150 41 -229 97 -284 201 -69 130 15 529 186 883
119 246 242 428 423 624 322 348 798 623 1255 725 358 80 740 80 1088 1 1018
-230 1781 -1084 1904 -2131 6 -47 5 -51 -25 -73 -76 -57 -102 -200 -54 -298
108 -216 433 -154 462 87 9 78 -12 136 -75 200 l-54 55 -14 109 c-81 606 -348
1145 -784 1576 -433 430 -983 694 -1589 765 -157 19 -496 18 -645 -1z"/>
<path d="M8113 4629 c-110 -39 -365 -48 -818 -28 -290 13 -337 8 -357 -37 -13
-28 1 -101 27 -140 13 -21 16 -21 54 -8 57 19 196 34 328 34 l112 0 7 -47 c4
-27 3 -223 -2 -438 -5 -214 -9 -463 -9 -552 0 -190 2 -194 87 -200 64 -4 186
35 179 58 -55 186 -65 335 -57 799 4 200 10 368 15 373 4 4 86 3 182 -4 189
-12 261 -9 307 15 34 18 58 72 47 108 -12 38 -37 88 -44 87 -3 -1 -29 -10 -58
-20z"/>
<path d="M5820 4618 c-96 -5 -176 -11 -178 -13 -2 -2 3 -23 12 -48 39 -116 49
-431 32 -1002 -8 -279 -8 -291 11 -314 29 -36 100 -39 183 -9 71 26 69 22 45
108 -19 69 -37 254 -33 340 l3 65 80 -1 c62 0 90 -5 121 -22 80 -41 190 -140
343 -306 198 -215 260 -253 341 -211 24 13 90 104 90 125 0 4 -15 11 -34 18
-63 23 -172 109 -333 265 -89 86 -178 164 -198 175 l-37 19 53 22 c73 29 163
98 210 161 84 112 104 293 45 413 -46 94 -144 166 -279 204 -69 19 -262 24
-477 11z m411 -163 c61 -21 127 -78 150 -129 21 -46 25 -148 9 -206 -40 -144
-188 -235 -402 -247 l-98 -6 1 194 c1 107 4 241 8 299 l6 105 35 7 c59 11 241
1 291 -17z"/>
<path d="M4655 4605 c-16 -9 -42 -28 -57 -42 l-28 -26 40 -43 39 -43 -39 -85
c-43 -92 -217 -426 -350 -671 -171 -315 -199 -390 -166 -439 19 -30 79 -48
139 -44 l42 3 7 56 c9 69 41 163 101 292 l46 97 293 0 293 0 54 -130 c84 -204
171 -320 240 -320 30 0 91 27 117 51 l22 20 -65 97 c-77 116 -206 375 -384
777 -138 311 -180 394 -222 433 -32 30 -84 37 -122 17z m121 -402 c53 -115
160 -365 168 -390 l7 -23 -224 0 -225 0 95 203 c52 111 104 221 114 245 10 23
21 42 24 42 3 0 21 -35 41 -77z"/>
<path d="M8113 3039 c-110 -39 -365 -48 -818 -28 -290 13 -337 8 -357 -37 -13
-28 1 -101 27 -140 13 -21 16 -21 54 -8 57 19 196 34 328 34 l112 0 7 -47 c4
-27 3 -223 -2 -438 -5 -214 -9 -463 -9 -552 0 -190 2 -194 87 -200 64 -4 186
35 179 58 -55 186 -65 335 -57 799 4 200 10 368 15 373 4 4 86 3 182 -4 189
-12 261 -9 307 15 34 18 58 72 47 108 -12 38 -37 88 -44 87 -3 -1 -29 -10 -58
-20z"/>
<path d="M6300 3030 c-85 -4 -266 -8 -402 -9 -137 0 -248 -4 -248 -8 0 -5 7
-42 15 -83 8 -41 20 -182 26 -313 11 -227 6 -494 -18 -867 -5 -83 -3 -98 12
-113 16 -16 51 -18 489 -15 520 3 522 3 539 64 7 23 5 40 -7 65 -33 68 -36 70
-97 54 -93 -24 -241 -35 -467 -35 l-219 0 4 208 c2 114 6 231 9 260 l5 52 320
0 c342 0 374 4 399 50 13 24 6 76 -13 102 -11 14 -25 15 -117 8 -58 -5 -215
-9 -349 -10 l-244 0 6 137 c4 75 7 174 7 220 l0 83 238 0 c234 0 366 -9 471
-32 51 -11 54 -11 72 13 47 61 48 126 2 156 -31 21 -183 25 -433 13z"/>
<path d="M2365 1186 c-52 -23 -69 -52 -66 -112 2 -32 44 -69 108 -93 71 -27
93 -46 93 -80 0 -46 -34 -71 -95 -71 -52 0 -75 15 -75 50 0 24 -4 30 -21 30
-18 0 -20 -5 -17 -42 3 -42 4 -43 53 -56 73 -18 133 -6 173 34 61 61 31 132
-75 174 -99 40 -128 85 -82 131 16 16 30 19 67 17 43 -3 48 -5 57 -35 13 -48
45 -45 45 3 0 31 -4 37 -35 50 -42 17 -90 17 -130 0z"/>
<path d="M987 1183 c-2 -5 -32 -83 -67 -175 -58 -156 -64 -167 -91 -173 -52
-12 -30 -25 41 -25 71 0 93 13 41 25 l-29 6 18 47 18 47 70 3 c69 3 71 2 85
-25 31 -60 30 -71 -3 -78 -56 -12 -31 -25 50 -25 77 0 105 12 57 24 -19 4 -33
33 -87 181 -49 133 -69 175 -82 175 -9 0 -19 -3 -21 -7z m41 -140 l29 -78 -59
-3 c-33 -2 -62 -1 -64 1 -6 6 50 157 58 157 3 0 20 -35 36 -77z"/>
<path d="M1250 1182 c0 -6 12 -12 28 -14 l27 -3 3 -162 2 -161 -30 -7 c-57
-13 -30 -25 55 -25 85 0 112 12 55 25 l-30 7 0 74 0 74 29 0 c69 0 84 -17 113
-125 l14 -50 47 -3 c49 -3 65 11 23 22 -19 5 -28 18 -40 59 -9 30 -27 65 -41
79 l-24 25 33 15 c65 31 72 108 13 152 -25 18 -45 21 -153 25 -81 2 -124 -1
-124 -7z m240 -37 c27 -25 27 -86 0 -110 -13 -11 -41 -20 -75 -23 l-55 -4 0
74 c0 41 3 78 8 82 13 14 101 0 122 -19z"/>
<path d="M1640 1156 c0 -19 -3 -41 -6 -50 -4 -12 0 -16 15 -16 14 0 21 6 21
19 0 42 10 51 61 51 l49 0 0 -160 0 -159 -35 -7 c-65 -12 -35 -24 60 -24 95 0
125 12 60 24 l-35 7 0 159 0 160 55 0 c48 0 55 -3 55 -19 0 -30 11 -51 26 -51
10 0 14 14 14 50 l0 50 -170 0 -170 0 0 -34z"/>
<path d="M2040 1181 c0 -5 12 -11 28 -13 l27 -3 3 -162 2 -161 -30 -7 c-57
-13 -30 -25 55 -25 85 0 112 12 55 25 l-30 7 2 161 3 162 28 3 c15 2 27 8 27
13 0 5 -38 9 -85 9 -47 0 -85 -4 -85 -9z"/>
<path d="M2600 1156 c0 -19 -3 -41 -6 -50 -4 -12 0 -16 15 -16 14 0 21 6 21
19 0 42 10 51 61 51 l49 0 0 -160 0 -159 -35 -7 c-65 -12 -35 -24 60 -24 95 0
125 12 60 24 l-35 7 0 159 0 160 55 0 c48 0 55 -3 55 -19 0 -30 11 -51 26 -51
10 0 14 14 14 50 l0 50 -170 0 -170 0 0 -34z"/>
<path d="M3180 1182 c0 -6 12 -12 28 -14 l27 -3 3 -162 2 -161 -30 -7 c-57
-13 -30 -25 55 -25 85 0 112 12 55 25 l-30 7 0 74 0 74 29 0 c69 0 84 -17 113
-125 l14 -50 47 -3 c49 -3 65 11 23 22 -19 5 -28 18 -40 59 -9 30 -27 65 -41
79 l-24 25 33 15 c65 31 72 108 13 152 -25 18 -45 21 -153 25 -81 2 -124 -1
-124 -7z m240 -37 c27 -25 27 -86 0 -110 -13 -11 -41 -20 -75 -23 l-55 -4 0
74 c0 41 3 78 8 82 13 14 101 0 122 -19z"/>
<path d="M3580 1181 c0 -5 10 -11 23 -13 21 -3 22 -7 27 -143 5 -150 11 -170
60 -198 47 -28 102 -31 152 -9 66 29 78 61 78 216 l0 127 30 6 c55 10 31 23
-45 23 -43 0 -75 -4 -75 -10 0 -5 9 -10 19 -10 48 0 51 -7 51 -109 -1 -120
-12 -170 -45 -198 -31 -27 -82 -30 -125 -8 -39 20 -50 64 -50 196 0 113 3 119
51 119 10 0 19 5 19 10 0 6 -35 10 -85 10 -47 0 -85 -4 -85 -9z"/>
<path d="M4040 1181 c0 -5 10 -11 23 -13 22 -3 22 -6 25 -165 l2 -162 -25 -7
c-47 -12 -25 -24 45 -24 72 0 93 13 40 25 l-30 7 0 134 c0 75 3 133 8 131 4
-3 59 -71 122 -151 63 -80 121 -145 127 -146 9 0 13 45 15 178 3 175 3 177 26
180 12 2 22 8 22 13 0 5 -34 9 -75 9 -43 0 -75 -4 -75 -10 0 -5 10 -10 23 -10
45 0 48 -9 45 -141 l-3 -123 -113 142 -112 142 -45 0 c-25 0 -45 -4 -45 -9z"/>
<path d="M4830 1181 c0 -5 12 -11 28 -13 l27 -3 3 -162 2 -161 -30 -7 c-57
-13 -30 -25 55 -25 85 0 112 12 55 25 l-30 7 2 161 3 162 28 3 c15 2 27 8 27
13 0 5 -38 9 -85 9 -47 0 -85 -4 -85 -9z"/>
<path d="M5080 1181 c0 -5 10 -11 23 -13 22 -3 22 -6 25 -165 l2 -162 -25 -7
c-47 -12 -25 -24 45 -24 72 0 93 13 40 25 l-30 7 0 134 c0 75 3 133 8 131 4
-3 59 -71 122 -151 63 -80 121 -145 127 -146 9 0 13 45 15 178 3 175 3 177 26
180 12 2 22 8 22 13 0 5 -34 9 -75 9 -43 0 -75 -4 -75 -10 0 -5 10 -10 23 -10
45 0 48 -9 45 -141 l-3 -123 -113 142 -112 142 -45 0 c-25 0 -45 -4 -45 -9z"/>
<path d="M5540 1181 c0 -5 12 -11 28 -13 l27 -3 3 -162 2 -161 -30 -7 c-57
-13 -30 -25 55 -25 85 0 112 12 55 25 l-30 7 2 161 3 162 28 3 c15 2 27 8 27
13 0 5 -38 9 -85 9 -47 0 -85 -4 -85 -9z"/>
<path d="M5780 1156 c0 -19 -3 -41 -6 -50 -4 -12 0 -16 15 -16 14 0 21 6 21
19 0 42 10 51 61 51 l49 0 0 -160 0 -159 -35 -7 c-65 -12 -35 -24 60 -24 95 0
125 12 60 24 l-35 7 0 159 0 160 55 0 c48 0 55 -3 55 -19 0 -30 11 -51 26 -51
10 0 14 14 14 50 l0 50 -170 0 -170 0 0 -34z"/>
<path d="M6180 1181 c0 -5 12 -11 28 -13 l27 -3 3 -162 2 -161 -30 -7 c-57
-13 -30 -25 55 -25 85 0 112 12 55 25 l-30 7 2 161 3 162 28 3 c15 2 27 8 27
13 0 5 -38 9 -85 9 -47 0 -85 -4 -85 -9z"/>
<path d="M6577 1183 c-2 -5 -32 -83 -67 -175 -58 -156 -64 -167 -91 -173 -52
-12 -30 -25 41 -25 71 0 93 13 41 25 l-29 6 18 47 18 47 70 3 c69 3 71 2 85
-25 31 -60 30 -71 -3 -78 -56 -12 -31 -25 50 -25 77 0 105 12 57 24 -19 4 -33
33 -87 181 -49 133 -69 175 -82 175 -9 0 -19 -3 -21 -7z m41 -140 l29 -78 -59
-3 c-33 -2 -62 -1 -64 1 -6 6 50 157 58 157 3 0 20 -35 36 -77z"/>
<path d="M6800 1156 c0 -19 -3 -41 -6 -50 -4 -12 0 -16 15 -16 14 0 21 6 21
19 0 42 10 51 61 51 l49 0 0 -160 0 -159 -35 -7 c-65 -12 -35 -24 60 -24 95 0
125 12 60 24 l-35 7 0 159 0 160 55 0 c48 0 55 -3 55 -19 0 -30 11 -51 26 -51
10 0 14 14 14 50 l0 50 -170 0 -170 0 0 -34z"/>
<path d="M7200 1181 c0 -5 12 -11 28 -13 l27 -3 3 -162 2 -161 -30 -7 c-57
-13 -30 -25 55 -25 85 0 112 12 55 25 l-30 7 2 161 3 162 28 3 c15 2 27 8 27
13 0 5 -38 9 -85 9 -47 0 -85 -4 -85 -9z"/>
<path d="M7420 1180 c0 -5 11 -10 24 -10 22 0 31 -17 96 -180 40 -99 78 -180
85 -180 7 0 40 76 76 176 59 162 66 176 92 181 51 10 27 23 -43 23 -40 0 -70
-4 -70 -10 0 -5 6 -10 13 -10 6 0 18 -4 26 -9 12 -8 6 -32 -34 -141 -26 -72
-51 -127 -55 -123 -4 4 -29 64 -55 132 -49 128 -50 140 -2 141 9 0 17 5 17 10
0 6 -35 10 -85 10 -50 0 -85 -4 -85 -10z"/>
<path d="M7880 1181 c0 -5 12 -11 28 -13 l27 -3 3 -162 2 -161 -30 -7 c-70
-15 -21 -25 130 -25 l160 0 0 50 c0 61 -25 71 -36 15 l-6 -35 -84 0 -84 0 0
75 0 75 49 0 c43 0 50 -3 53 -22 2 -12 9 -23 16 -26 9 -3 12 14 12 63 0 49 -3
66 -12 63 -7 -3 -14 -14 -16 -26 -3 -19 -10 -22 -53 -22 l-49 0 0 70 0 70 80
0 c72 0 80 -2 80 -19 0 -30 11 -51 26 -51 10 0 14 14 14 50 l0 50 -155 0 c-89
0 -155 -4 -155 -9z"/>
<path d="M2980 955 c0 -12 14 -15 70 -15 56 0 70 3 70 15 0 12 -14 15 -70 15
-56 0 -70 -3 -70 -15z"/>
</g>
</svg>
