<?xml version="1.0" standalone="no"?>
<!DOCTYPE svg PUBLIC "-//W3C//DTD SVG 20010904//EN"
 "http://www.w3.org/TR/2001/REC-SVG-20010904/DTD/svg10.dtd">
<svg version="1.0" xmlns="http://www.w3.org/2000/svg"
 width="381.000000pt" height="183.000000pt" viewBox="0 0 381.000000 183.000000"
 preserveAspectRatio="xMidYMid meet">

<g transform="translate(0.000000,183.000000) scale(0.100000,-0.100000)"
fill="#ffffff" stroke="none">
<path d="M0 915 l0 -915 1905 0 1905 0 0 915 0 915 -1905 0 -1905 0 0 -915z
m690 725 l0 -40 60 0 60 0 0 40 c0 36 3 40 25 40 23 0 25 -4 25 -40 l0 -40 70
0 70 0 0 40 c0 36 3 40 25 40 24 0 25 -2 25 -65 l0 -65 -245 0 -245 0 0 25 c0
22 4 25 35 25 33 0 35 2 35 33 0 40 6 47 37 47 20 0 23 -5 23 -40z m190 -220
l0 -30 -310 0 -310 0 0 30 0 30 310 0 310 0 0 -30z m267 -95 c34 -66 62 -124
63 -128 0 -5 -14 -7 -32 -5 -30 3 -36 10 -79 98 l-47 95 -46 -97 c-43 -92 -47
-98 -76 -98 -16 0 -30 2 -30 5 0 3 28 61 63 130 60 122 63 126 92 123 27 -3
35 -13 92 -123z m153 20 l0 -105 85 0 c84 0 85 0 85 -25 l0 -25 -115 0 -115 0
0 130 0 130 30 0 30 0 0 -105z m440 80 c0 -24 -2 -24 -92 -27 -92 -3 -93 -3
-93 -28 0 -24 2 -25 83 -28 73 -2 82 -5 82 -22 0 -17 -9 -20 -82 -22 -81 -3
-83 -4 -83 -28 0 -25 1 -25 93 -28 91 -3 92 -3 92 -28 l0 -25 -122 3 -123 3
-3 114 c-1 63 0 121 2 128 4 10 36 13 126 13 l120 0 0 -25z m140 -21 l43 -47
43 47 c37 39 49 46 80 46 l37 0 -19 -22 c-10 -13 -36 -42 -58 -65 l-40 -43 44
-47 c61 -63 70 -74 70 -79 0 -2 -16 -4 -36 -4 -29 0 -42 8 -76 45 l-42 46 -46
-46 c-35 -35 -53 -45 -78 -45 -18 0 -32 3 -32 7 0 3 25 33 56 65 l57 60 -57
57 c-31 31 -56 60 -56 64 0 4 15 7 34 7 27 0 42 -9 76 -46z m470 -74 c33 -66
60 -124 60 -130 0 -5 -13 -10 -29 -10 -28 0 -33 7 -76 98 l-47 97 -46 -95
c-44 -88 -49 -95 -79 -98 l-32 -3 42 88 c82 170 84 173 117 173 28 0 33 -7 90
-120z m233 23 l72 -98 3 98 3 98 27 -3 27 -3 0 -125 0 -125 -40 -3 c-40 -3
-41 -3 -112 94 l-72 96 -3 -94 -3 -93 -27 -3 -28 -3 0 130 0 131 40 0 c39 0
42 -2 113 -97z m394 72 c61 -36 80 -111 44 -171 -28 -45 -88 -66 -181 -62
l-75 3 -3 114 c-1 63 0 121 3 129 8 21 171 11 212 -13z m333 0 c0 -24 -2 -24
-92 -27 -92 -3 -93 -3 -93 -28 0 -24 2 -25 83 -28 73 -2 82 -5 82 -22 0 -17
-9 -20 -82 -22 -81 -3 -83 -4 -83 -28 0 -25 1 -25 93 -28 91 -3 92 -3 92 -28
l0 -25 -122 3 -123 3 -3 114 c-1 63 0 121 2 128 4 10 36 13 126 13 l120 0 0
-25z m225 15 c22 -5 45 -17 52 -26 20 -27 16 -81 -7 -104 -12 -12 -15 -22 -9
-26 11 -6 25 -38 35 -79 5 -22 3 -25 -22 -25 -24 0 -33 8 -54 48 -25 46 -26
47 -77 50 l-53 3 0 -45 c0 -44 -1 -46 -30 -46 l-30 0 0 130 0 130 78 0 c42 0
95 -5 117 -10z m-2815 -275 l0 -75 -50 0 -50 0 0 75 0 75 50 0 50 0 0 -75z
m-460 -65 l0 -110 -30 0 -30 0 0 110 0 110 30 0 30 0 0 -110z m930 5 c0 -24
-3 -25 -55 -25 l-55 0 0 -85 0 -85 -30 0 -30 0 0 85 0 85 -50 0 c-47 0 -50 2
-50 25 l0 25 135 0 135 0 0 -25z m70 -17 c0 -33 3 -39 12 -30 22 22 86 14 113
-13 21 -20 25 -34 25 -80 0 -52 -1 -55 -25 -55 -23 0 -25 4 -25 44 0 65 -33
91 -81 66 -15 -8 -19 -22 -19 -60 0 -47 -2 -50 -25 -50 l-25 0 0 110 0 110 25
0 c23 0 25 -4 25 -42z m2352 -393 l3 -435 -46 0 -45 0 -65 89 c-35 50 -67 90
-71 90 -5 1 -8 -39 -8 -89 l0 -90 -30 0 -30 0 0 130 0 130 44 0 44 0 71 -97
71 -98 0 403 0 402 30 0 30 0 2 -435z m-2033 364 c34 -12 51 -35 51 -68 0 -13
-7 -21 -17 -21 -15 0 -16 -2 -3 -10 27 -17 -12 -43 -72 -48 -43 -3 -58 0 -80
18 -46 36 -37 103 16 126 38 16 64 17 105 3z m-1081 -163 c3 -78 -2 -86 -60
-86 l-38 0 0 73 c0 41 3 77 7 81 4 4 25 6 48 4 l40 -3 3 -69z m646 -60 c34
-14 76 -59 76 -82 0 -22 -63 -18 -77 5 -16 26 -77 44 -118 37 -46 -9 -79 -51
-71 -91 9 -44 29 -58 88 -63 43 -3 58 0 78 17 l25 20 -57 1 c-58 0 -72 7 -60
27 6 9 106 17 170 14 8 -1 12 -21 12 -66 l0 -65 -29 0 c-25 0 -28 3 -24 21 6
22 6 22 -26 -2 -40 -29 -128 -32 -178 -6 -92 49 -94 180 -2 229 41 22 144 24
193 4z m646 -16 l0 -30 -96 0 c-93 0 -95 -1 -92 -22 3 -21 9 -23 86 -26 73 -2
82 -5 82 -22 0 -17 -9 -20 -82 -22 -82 -3 -83 -3 -86 -30 l-3 -28 95 0 c96 0
96 0 96 -25 l0 -25 -125 0 -125 0 0 125 0 124 123 4 c67 1 123 4 125 5 1 1 2
-11 2 -28z m270 -101 c33 -65 60 -121 60 -124 0 -3 -15 -5 -32 -5 -32 0 -35 4
-77 96 l-45 96 -48 -96 c-45 -89 -50 -96 -78 -96 -17 0 -30 3 -29 8 0 4 26 59
57 122 51 102 61 116 87 121 17 3 34 4 38 1 4 -2 34 -57 67 -123z m-570 101
c27 -27 27 -90 0 -115 -11 -10 -16 -21 -12 -24 5 -3 19 -25 31 -48 l21 -43
-39 0 c-33 0 -40 4 -45 25 -11 44 -41 65 -91 65 l-45 0 0 -45 c0 -43 -1 -45
-30 -45 l-30 0 0 125 0 125 110 0 c97 0 112 -2 130 -20z m838 -2 c-3 -20 -10
-23 -55 -26 l-53 -3 0 -100 0 -99 -30 0 -30 0 0 100 0 100 -55 0 c-52 0 -55 1
-55 25 l0 25 141 0 c140 0 140 0 137 -22z m-2068 -263 l0 -235 334 0 333 0 49
97 c45 91 51 98 81 101 31 3 34 0 71 -75 l40 -78 38 78 c36 72 40 77 70 77 31
0 34 -4 98 -130 l66 -130 -35 0 c-34 0 -36 2 -81 98 l-47 97 -46 -97 c-28 -61
-52 -98 -61 -98 -10 0 -34 38 -64 98 l-48 97 -47 -97 -46 -98 -382 0 -383 0 0
265 0 265 30 0 30 0 0 -235z m500 60 l0 -75 -45 0 -45 0 0 75 0 75 45 0 45 0
0 -75z m2467 -112 c42 -20 63 -59 63 -116 0 -56 -25 -90 -85 -113 -87 -33
-199 -3 -230 62 -39 82 6 164 100 184 45 9 114 1 152 -17z m-1527 -103 c33
-66 60 -124 60 -130 0 -5 -14 -10 -30 -10 -29 0 -34 6 -77 98 l-46 97 -46 -97
c-44 -95 -47 -98 -78 -98 -18 0 -33 2 -33 5 0 3 28 61 62 130 61 122 63 125
95 125 32 0 35 -4 93 -120z m326 87 c30 -35 31 -76 3 -106 -13 -14 -18 -26
-12 -30 12 -7 43 -66 43 -81 0 -5 -15 -10 -34 -10 -28 0 -36 5 -46 31 -20 48
-37 59 -91 59 l-49 0 0 -45 c0 -43 -1 -45 -30 -45 l-30 0 0 131 0 131 111 -4
c107 -3 112 -4 135 -31z m312 -92 c34 -69 62 -127 62 -130 0 -3 -15 -5 -33 -5
-33 0 -35 3 -79 98 l-45 97 -47 -97 c-45 -97 -46 -98 -81 -98 l-35 0 65 130
c64 127 66 130 98 130 32 0 34 -3 95 -125z m282 95 c0 -29 -1 -30 -50 -30
l-50 0 0 -100 0 -100 -30 0 -30 0 0 100 0 100 -55 0 c-54 0 -55 0 -55 30 l0
30 135 0 135 0 0 -30z m90 -20 l0 -51 83 3 82 3 3 48 c3 45 5 47 33 47 l29 0
0 -130 0 -130 -29 0 c-29 0 -30 2 -33 53 l-3 52 -82 3 -83 3 0 -56 c0 -54 0
-55 -30 -55 l-30 0 0 130 0 130 30 0 c29 0 30 -1 30 -50z"/>
<path d="M2822 1318 l3 -73 55 2 c45 1 58 5 77 28 30 34 29 60 -2 90 -20 21
-34 25 -80 25 l-56 0 3 -72z"/>
<path d="M3400 1360 l0 -40 51 0 c60 0 89 13 89 41 0 24 -36 39 -96 39 l-44 0
0 -40z"/>
<path d="M1480 1015 c-11 -13 -6 -15 45 -15 41 0 56 3 53 13 -7 19 -82 21 -98
2z"/>
<path d="M1494 955 c24 -19 44 -18 76 0 24 14 22 14 -35 14 -55 0 -58 -1 -41
-14z"/>
<path d="M1302 758 l3 -33 64 0 c67 0 91 15 78 49 -5 13 -21 16 -77 16 l-71 0
3 -32z"/>
<path d="M3063 458 c-12 -6 -27 -24 -34 -41 -17 -40 3 -76 53 -95 73 -28 148
9 148 73 0 47 -37 75 -99 74 -25 0 -56 -5 -68 -11z"/>
<path d="M1842 433 l3 -38 52 -3 c56 -3 93 10 93 33 0 25 -42 45 -98 45 l-53
0 3 -37z"/>
</g>
</svg>
