<?xml version="1.1" encoding="utf-8"?>
<svg version="1.1" xmlns="http://www.w3.org/2000/svg" xmlns:xlink="http://www.w3.org/1999/xlink" x="0px" y="0px" viewBox="0 0 783.4 166.8" style="enable-background:new 0 0 783.4 166.8;" xml:space="preserve" width="783.4" height="166.8" fill="white">
	<path d="M547,99.1l9.5-25.4h5l9.5,25.4h-4.5l-2.4-6.3h-10.4l-2.4,6.3H547z M554.8,89.2h8.1l-4.1-11.1L554.8,89.2z"/>
	<path d="M571.6,73.7h4.2v14.8c-0.1,1.9,0.4,3.8,1.4,5.4c1.1,1.3,2.7,2,4.4,1.8c1.7,0.1,3.4-0.5,4.5-1.8
		c1.1-1.6,1.6-3.5,1.4-5.4V73.7h4.2v14.5c0,3.6-0.8,6.4-2.5,8.3c-1.7,1.9-4.2,2.9-7.5,2.9c-3.3,0-5.8-1-7.4-2.9s-2.5-4.7-2.5-8.3
		V73.7z"/>
	<path d="M593.9,73.7h19.9v3.7h-7.8v21.7h-4.2V77.4h-7.8L593.9,73.7z"/>
	<path d="M616.1,73.7h4.2v10.7h11.8V73.7h4.2v25.4h-4.2V88h-11.8v11h-4.2V73.7z"/>
	<rect x="549" y="107" width="4.2" height="25.4"/>
	<path d="M557.1,132.4V107h3.8l12.4,18v-18h4.1v25.4h-3.8l-12.4-18v18H557.1z"/>
	<path d="M581.4,132.4V107h3.8l12.4,18v-18h4.1v25.4h-3.8l-12.4-18v18H581.4z"/>
	<path d="M617,106.7c2.3,0,4.5,0.5,6.4,1.7c1.8,1.1,3.3,2.7,4.3,4.6c2.1,4.2,2.1,9.1,0,13.3c-1,1.9-2.5,3.5-4.3,4.6
		c-4,2.2-8.9,2.2-12.9,0c-1.8-1.1-3.4-2.7-4.4-4.6c-2.1-4.2-2.1-9.1,0-13.3c1-1.9,2.5-3.5,4.4-4.6C612.5,107.3,614.7,106.7,617,106.7
		 M617,110.4c-1.5,0-3,0.4-4.2,1.2c-1.2,0.8-2.2,1.9-2.8,3.3c-1.4,3-1.4,6.5,0,9.6c0.6,1.3,1.6,2.5,2.8,3.3c2.6,1.6,5.9,1.6,8.5,0
		c1.2-0.8,2.2-2,2.8-3.3c1.3-3.1,1.3-6.5,0-9.6c-0.6-1.3-1.6-2.5-2.8-3.3C620,110.8,618.5,110.4,617,110.4"/>
	<path d="M628.7,107h4.4l7,20.4l7.1-20.4h4.3l-8.9,25.4h-5L628.7,107z"/>
	<path d="M647.6,132.4l9.5-25.4h5l9.5,25.4h-4.5l-2.4-6.3h-10.4l-2.4,6.3H647.6z M655.5,122.5h8.1l-4.1-11.1
		L655.5,122.5z"/>
	<path d="M668.3,107h19.9v3.7h-7.8v21.7h-4.2v-21.7h-7.8L668.3,107z"/>
	<rect x="690.5" y="107" width="4.2" height="25.4"/>
	<path d="M710,106.7c2.3,0,4.5,0.5,6.4,1.7c1.8,1.1,3.3,2.7,4.3,4.6c2.1,4.2,2.1,9.1,0,13.3c-1,1.9-2.5,3.5-4.3,4.6
		c-4,2.2-8.9,2.2-12.9,0c-1.8-1.1-3.4-2.7-4.4-4.6c-2.1-4.2-2.1-9.1,0-13.3c1-1.9,2.5-3.5,4.4-4.6C705.5,107.3,707.7,106.7,710,106.7
		 M710,110.4c-1.5,0-3,0.4-4.2,1.2c-1.2,0.8-2.2,1.9-2.8,3.3c-1.4,3-1.4,6.5,0,9.6c0.6,1.3,1.6,2.5,2.8,3.3c2.6,1.6,5.9,1.6,8.5,0
		c1.2-0.8,2.2-2,2.8-3.3c1.3-3.1,1.3-6.5,0-9.6c-0.6-1.3-1.6-2.5-2.8-3.3C712.9,110.8,711.5,110.4,710,110.4"/>
	<path d="M725.2,132.4V107h3.8l12.4,18v-18h4.1v25.4h-3.8l-12.4-18v18H725.2z"/>
	<path d="M547,165.7l9.5-25.4h5l9.5,25.4h-4.5l-2.4-6.3h-10.4l-2.4,6.3H547z M554.8,155.9h8.1l-4.1-11.1L554.8,155.9z"
		/>
	<path d="M582.8,165.9c-2.2,0.1-4.5-0.5-6.4-1.6c-1.8-1.1-3.2-2.6-4.2-4.5c-1-2.1-1.5-4.4-1.5-6.8
		c-0.1-2.4,0.5-4.7,1.5-6.8c1-1.9,2.4-3.5,4.3-4.5c2-1.1,4.2-1.7,6.5-1.6c1.8,0,3.6,0.3,5.2,1.1c1.5,0.7,2.8,1.8,3.7,3.1
		c1,1.4,1.6,3,1.9,4.7h-4.3c-0.3-1.5-1.2-2.8-2.4-3.8c-1.2-1-2.8-1.5-4.3-1.4c-1.5,0-2.9,0.4-4.2,1.2c-1.2,0.8-2.1,1.9-2.7,3.3
		c-0.7,1.5-1,3.2-0.9,4.8c0,1.6,0.3,3.3,0.9,4.8c0.6,1.3,1.5,2.5,2.7,3.3c1.2,0.8,2.7,1.2,4.1,1.2c1.6,0.1,3.1-0.4,4.4-1.4
		c1.2-1,2-2.3,2.3-3.8h4.3c-0.2,1.7-0.9,3.3-1.9,4.7c-1,1.3-2.3,2.4-3.8,3.1C586.5,165.6,584.6,165.9,582.8,165.9"/>
	<path d="M607.1,165.9c-2.2,0.1-4.5-0.5-6.4-1.6c-1.8-1.1-3.2-2.6-4.2-4.5c-1-2.1-1.5-4.4-1.5-6.8
		c-0.1-2.4,0.5-4.7,1.5-6.8c1-1.9,2.4-3.5,4.3-4.5c2-1.1,4.2-1.7,6.5-1.6c1.8,0,3.6,0.3,5.2,1.1c1.5,0.7,2.8,1.8,3.7,3.1
		c1,1.4,1.6,3,1.9,4.7h-4.3c-0.3-1.5-1.2-2.8-2.4-3.8c-1.2-1-2.8-1.5-4.3-1.4c-1.5,0-2.9,0.4-4.2,1.2c-1.2,0.8-2.1,1.9-2.7,3.3
		c-0.7,1.5-1,3.2-0.9,4.8c0,1.6,0.3,3.3,0.9,4.8c0.6,1.3,1.5,2.5,2.7,3.3c1.2,0.8,2.7,1.2,4.1,1.2c1.6,0.1,3.1-0.4,4.4-1.4
		c1.2-1,2-2.3,2.3-3.8h4.3c-0.2,1.7-0.9,3.3-1.9,4.7c-1,1.3-2.3,2.4-3.8,3.1C610.7,165.6,608.9,165.9,607.1,165.9"/>
	<path d="M620.9,140.3h16.6v3.7H625v7h10.2v3.6H625v7.4h12.9v3.7h-17V140.3z"/>
	<path d="M640.6,165.7v-25.4h4.2V162h10.9v3.7L640.6,165.7z"/>
	<path d="M658,140.3h16.6v3.7h-12.4v7h10.2v3.6h-10.2v7.4h12.9v3.7h-17V140.3z"/>
	<path d="M677.8,140.3h10c1.6,0,3.2,0.3,4.7,1c1.3,0.6,2.4,1.6,3.1,2.8c0.8,1.3,1.1,2.8,1.1,4.3c0,1.6-0.4,3.2-1.3,4.5
		c-0.9,1.3-2.1,2.2-3.6,2.7l5.4,10.1h-4.6l-4.9-9.2h-5.6v9.2h-4.2V140.3z M681.9,143.9v8.9h5.5c1.3,0.1,2.6-0.4,3.6-1.2
		c1.8-1.8,1.8-4.7,0-6.5c-1-0.8-2.3-1.3-3.6-1.2L681.9,143.9z"/>
	<path d="M696.7,165.7l9.5-25.4h5l9.5,25.4h-4.5l-2.4-6.3h-10.4l-2.4,6.3H696.7z M704.6,155.9h8.1l-4.1-11.1
		L704.6,155.9z"/>
	<path d="M717.4,140.3h19.9v3.7h-7.8v21.7h-4.2V144h-7.8L717.4,140.3z"/>
	<path d="M748.8,140c2.3,0,4.5,0.5,6.4,1.7c1.8,1.1,3.3,2.7,4.3,4.6c2.1,4.2,2.1,9.1,0,13.3c-1,1.9-2.5,3.5-4.3,4.6
		c-4,2.2-8.9,2.2-12.9,0c-1.8-1.1-3.4-2.7-4.4-4.6c-2.1-4.2-2.1-9.1,0-13.3c1-1.9,2.5-3.5,4.4-4.6C744.3,140.6,746.5,140,748.8,140
		 M748.8,143.7c-1.5,0-3,0.4-4.2,1.2c-1.2,0.8-2.2,1.9-2.8,3.3c-1.4,3-1.4,6.5,0,9.6c0.6,1.3,1.6,2.5,2.8,3.3c2.6,1.6,5.9,1.6,8.5,0
		c1.2-0.8,2.2-2,2.8-3.3c1.3-3.1,1.3-6.5,0-9.6c-0.6-1.3-1.6-2.5-2.8-3.3C751.7,144.1,750.3,143.7,748.8,143.7"/>
	<path d="M764,140.3h10c1.6,0,3.2,0.3,4.7,1c1.3,0.6,2.4,1.6,3.1,2.8c0.8,1.3,1.1,2.8,1.1,4.3c0,1.6-0.4,3.2-1.3,4.5
		c-0.9,1.3-2.1,2.2-3.6,2.7l5.4,10.1h-4.7l-4.9-9.2h-5.6v9.2H764L764,140.3z M768.2,143.9v8.9h5.5c1.3,0.1,2.6-0.4,3.6-1.2
		c1.8-1.8,1.8-4.7,0-6.5c-1-0.8-2.3-1.3-3.6-1.2L768.2,143.9z"/>
	<path d="M496.3,137.8l-29.1-46.5l43.8-48.2h-37.9l-47.7,52.1V0H392v165.6h33.5v-29.8l18.1-19.8l31.3,49.6h38.9v-27.8
		H496.3z"/>
	<rect x="343.2" width="33.5" height="165.6"/>
	<path d="M295.2,59.6c-3-3.9-6.6-7.4-10.5-10.4c-7.1-5.1-16.4-7.8-27.4-7.8c-34,0-56.5,26.9-56.5,62.8
		c0,36.7,23,62.6,56.7,62.6c14.8,0.2,28.8-6.6,37.7-18.5v17.2H328V43.1h-32.8V59.6z M265.4,139.7c-18.8,0-30.1-14.9-30.1-35
		c0-21.5,11.5-35.7,30.1-35.7c19.8,0,29.8,16.6,29.8,35.7S284.5,139.7,265.4,139.7"/>
	<path d="M167.8,43.4l-24.2,86.3l-22.5-86.3H90.8l-23,86.1L43.6,43.4H0v27.8h17l30.8,94.4h35.7l22-73.6l21.3,73.6h35.7
	l40.1-122.3L167.8,43.4z"/>
</svg>
